# xmcd
#
# Track frame offsets:
#	150
#	18270
#	35371
#	49508
#	60749
#	76738
#	89376
#	107204
#	119948
#	130972
#	143015
#	161421
#	175084
#	191605
#	204674
#	214395
#	228759
#	239507
#	251773
#	261032
#	274638
#	284232
#	301506
#	315792
#	332686
#	345450
#
# Disc length: 4773 seconds
#
# Revision: 2
# Processed by: cddbd v1.5.1PL2 Copyright (c) Steve Scherf et al.
# Submitted via: audiograbber 1.83.01
#
DISCID=7112a31a
DTITLE=Verschiedene - Country Mix 3
DYEAR=1900
DGENRE=Country
TTITLE0=Garth Brooks - If Tomorrow Never Comes
TTITLE1=Alabama - If Your Gonna Play In Texas
TTITLE2=Ricky Van Shelton - I'll Leave This World Lovin You
TTITLE3=Alan Jackson - I'm A Fool For You
TTITLE4=Tracy Byrd -  I'm From The Country 
TTITLE5=Hank Snow - I've Been Everywhere
TTITLE6=Trisha Yearwood - Katie And Tommy
TTITLE7=Susan Ray - L . A . International Airport
TTITLE8=Conway Twitty and Loretta Lynn - Lead On Me
TTITLE9=Alan Jackson - Little Bitty
TTITLE10=Charlie Daniels Band - Long Haired Country Boy
TTITLE11=Don Williams - Lord Have Mercy On A Country Boy
TTITLE12=Travis Tritt -  Love A Woman
TTITLE13=Johnny Horton - North To Alaska
TTITLE14=Toby Keith - Old Toy Trains
TTITLE15=Charlie Rich and Janie Frickie - On My Knees
TTITLE16=Connie Smith - Once A Day
TTITLE17=Donny and Marie Osmond - Paper Roses
TTITLE18=Frankie Lane - Rawhide
TTITLE19=Lynn Anderson - Rose Garden
TTITLE20=Loretta Lynn - Satin Sheets
TTITLE21=Dwight Yokum - She Wears Red
TTITLE22=George Jones and Tammy - She's Just An Old Love Turned
TTITLE23=Toby Kieth - She's Perfect
TTITLE24=Don Williams - Some Broken Hearts Never Me
TTITLE25=The Town And Country Square Dance - Square Dance Music and Calls
EXTD=
EXTT0=
EXTT1=
EXTT2=
EXTT3=
EXTT4=
EXTT5=
EXTT6=
EXTT7=
EXTT8=
EXTT9=
EXTT10=
EXTT11=
EXTT12=
EXTT13=
EXTT14=
EXTT15=
EXTT16=
EXTT17=
EXTT18=
EXTT19=
EXTT20=
EXTT21=
EXTT22=
EXTT23=
EXTT24=
EXTT25=
PLAYORDER=
